. 
  
http://www.torrenting.com/        :     Greatest Movie Tracker on The Net!!!
 
http://www.Torrenting.com          :     Once & For all ;)


               www . Torrenting . Com 

(((((((((((((= Enjoy No RAR releases =))))))))))))))))))))


...................................NFO:....................................

.                                                                                                     
       
     
     
       
       
     
     
                                         
                                         
                EXVID                    
                                         
         
                                         
         Filled the Archives             
                                         
         
                                         
                With:                    
                                         
         
                                         
                                    
     E240                           
                                    
     SP               (C) 2009      
                                         
     
     
     
                                                                                  
                                                                                   
            Memphis.Belle.1990.REAL.PROPER.DVDRip.XviD-EXViD                        
                                                                                   
                                                                                  
     
                                                                                               
EXViD aims to iNTERNAL those releases which have been lost in the archives.
EXViD aims to PRE non-internal releases which have poor sources and are likely skipped by others.
 
http://www.imdb.com/title/tt0100133/
Subs: EN, DE, ES, NL, SV, NO, DA, FI, PT, IW, PL, EL, CS, TR, HU, IS, HR, FR, IT, EN HI, DE HI
Date: 2011.09

Director: Michael Caton-Jones

Genres: Action | Drama | War

Plot:
The "Memphis Belle" is a World War II bomber, piloted by a young crew on dangerous bombing
raids into Europe. The crew only have to make one more bombing raid before they have finished
their duty and can go home. In the briefing before their last flight, the crew discover that
the target for the day is Bremen, a heavily-defended town that invariably causes many Allied
casualties.

Cast:
Matthew Modine 	 ... 	 Capt. Dennis Dearborn
Eric Stoltz 	 ... 	 Sgt. Danny "Danny Boy" Daly
Tate Donovan 	 ... 	 1st Lt. Luke Sinclair
D.B. Sweeney 	 ... 	 Lt. Phil Lowenthal
Billy Zane 	 ... 	 Lt. Val "Valentine" Kozlowski
Sean Astin 	 ... 	 Sgt. Richard "Rascal" Moore
Harry Connick Jr. 	 ... 	 Sgt. Clay Busby
Reed Diamond 	 ... 	 Sgt. Virgil Hoogesteger (as Reed Edward Diamond)
Courtney Gains 	 ... 	 Sgt. Eugene McVey
Neil Giuntoli 	 ... 	 Sgt. Jack Bocci
David Strathairn 	 ... 	 Col. Craig Harriman
John Lithgow 	 ... 	 Lt.Col. Bruce Derringer
Jane Horrocks 	 ... 	 Faith
Mac McDonald 	 ... 	 Les (as Mac Macdonald)
Jodie Wilson 	 ... 	 Singer

Stats:
Format                           : AVI
Format/Info                      : Audio Video Interleave
File size                        : 1.37 GiB
Duration                         : 1h 42mn
Overall bit rate                 : 1 906 Kbps
Writing application              : Nandub v1.0rc2
Writing library                  : Nandub build 1852/release

Video
ID                               : 0
Format                           : MPEG-4 Visual
Format profile                   : Advanced Simple@L5
Format settings, BVOP            : 2
Format settings, QPel            : No
Format settings, GMC             : No warppoints
Format settings, Matrix          : Default (H.263)
Codec ID                         : XVID
Codec ID/Hint                    : XviD
Duration                         : 1h 42mn
Bit rate                         : 1 515 Kbps
Width                            : 640 pixels
Height                           : 384 pixels
Display aspect ratio             : 1.667
Frame rate                       : 25.000 fps
Color space                      : YUV
Chroma subsampling               : 4:2:0
Bit depth                        : 8 bits
Scan type                        : Progressive
Compression mode                 : Lossy
Bits/(Pixel*Frame)               : 0.247
Stream size                      : 1.09 GiB (79%)
Writing library                  : XviD 64

Audio
ID                               : 1
Format                           : AC-3
Format/Info                      : Audio Coding 3
Mode extension                   : CM (complete main)
Codec ID                         : 2000
Duration                         : 1h 42mn
Bit rate mode                    : Constant
Bit rate                         : 384 Kbps
Channel(s)                       : 6 channels
Channel positions                : Front: L C R, Side: L R, LFE
Sampling rate                    : 48.0 KHz
Bit depth                        : 16 bits
Compression mode                 : Lossy
Delay relative to video          : 16ms
Stream size                      : 282 MiB (20%)
Alignment                        : Split accross interleaves
Interleave, duration             : 96 ms (2.40 video frames)
Interleave, preload duration     : 96 ms




Release notes:
The 2001 CLiX PROPER has an AR of 624/336 = 1.857:1. The real AR of this movie and of all
the DVD's is 1.66:1, so the CLiX rip has an AR error of (1.857/1.66)-1 x 100 = 11,9%.
This should be considered a technical flaw. Sample included.

enjoy!

Looking for:
75TB+ Archives
DUTCH/FLEMiSH Archives
                                                                                                    
Greets: CRBS EPiSODE FiCO FLS iLS KLASSiGER LiPSYNC MADE NODLABS RUNNER SPRiNTER      
   

                                                                    ASCII DONE BY XX^NFO 2oo9